<svg width="544" height="440" viewBox="0 0 544 440" fill="none" xmlns="http://www.w3.org/2000/svg">
<g clip-path="url(#clip0_1592_2610)">
<path d="M122.447 222.533C115.525 222.068 112.301 223.415 110.219 224.787C109.551 225.227 108.892 225.743 108.268 226.301C111.415 219.918 114.637 213.565 117.921 207.255C117.943 208.102 118.093 208.504 118.465 208.705C119.317 209.164 121.304 207.693 125.242 204.732C128.236 202.481 128.618 201.91 128.841 201.519C129.624 200.145 129.557 199.012 129.075 194.073C128.209 185.209 127.986 184.377 128.405 182.283C128.55 181.563 128.945 179.826 128.664 179.726C128.377 179.624 127.929 181.446 126.337 182.635C124.784 183.793 123.692 183.195 122.282 183.941C120.458 184.905 119.956 187.135 119.201 190.725C118.533 193.903 118.704 195.028 118.305 201.017C118.192 202.713 118.085 204.034 118.012 205.073C115.072 210.694 112.186 216.356 109.353 222.04C109.392 221.884 109.428 221.737 109.459 221.61C110.335 218.016 110.043 216.357 109.603 215.193C108.889 213.305 107.47 212.175 104.662 209.992C101.91 207.853 99.5826 206.621 96.7855 205.158C93.1189 203.241 91.2856 202.282 90.7883 202.562C89.5395 203.266 89.7251 206.954 90.7683 211.568C88.3938 210.343 87.1327 209.769 86.7338 209.994C86.562 210.091 86.4183 210.246 86.2993 210.45C84.5242 210.363 82.1712 210.463 79.4789 210.816C81.6031 210.048 83.9904 209.036 86.5619 207.654C88.791 206.456 89.9034 205.847 89.7967 205.344C89.4148 203.542 74.194 203.579 61.1461 210.426C55.0032 213.65 52.9603 216.484 51.904 218.743C51.5648 219.468 51.2726 220.253 51.0332 221.054C50.3753 213.969 49.7975 206.867 49.2952 199.772C49.7567 200.483 50.0953 200.747 50.5177 200.724C51.4839 200.67 52.4072 198.377 54.2146 193.793C55.5883 190.309 55.6158 189.623 55.6009 189.173C55.5487 187.592 54.8991 186.661 51.904 182.705C46.5283 175.603 45.9029 175.01 45.1655 173.007C44.9115 172.317 44.3391 170.63 44.0482 170.692C43.7494 170.755 44.3215 172.542 43.5861 174.388C42.8694 176.187 41.6254 176.249 40.8135 177.622C39.7639 179.398 40.503 181.561 41.7377 185.015C42.8311 188.073 43.5648 188.942 46.3588 194.255C47.1502 195.76 47.7496 196.941 48.231 197.865C48.6661 204.193 49.1695 210.528 49.7288 216.854C49.6799 216.702 49.6338 216.558 49.5935 216.432C48.4606 212.911 47.3438 211.651 46.3588 210.888C44.763 209.653 42.9627 209.432 39.4272 209.04C35.9626 208.656 33.3344 208.824 30.1851 209.04C26.0569 209.323 23.9928 209.465 23.7156 209.964C22.9547 211.333 25.5259 214.845 29.3679 218.602C26.2315 218.825 24.6328 218.988 24.3913 219.423C23.76 220.559 25.4272 223.173 28.2049 226.175C26.2741 226.341 25.2557 226.515 25.0671 226.855C22.9475 230.669 46.6308 251.104 51.8692 247.184C52.267 246.886 52.5488 246.449 52.7428 245.916C52.8286 246.637 52.9163 247.358 53.0037 248.079C46.8154 247.383 34.9277 249.248 27.8745 256.629C24.3683 260.298 23.8398 263.466 23.7156 264.483C23.1645 268.996 25.3611 273.799 27.1835 274.152C27.7215 277.512 29.4075 280.291 30.7912 280.266C32.526 280.236 32.219 275.829 36.3364 271.026C39.2095 267.674 42.6259 266.008 44.6543 265.02C49.011 262.896 51.5423 262.958 54.6806 261.228C54.7436 261.694 54.8108 262.16 54.8745 262.626C49.1259 263.59 42.5612 266.055 38.0107 270.817C34.5044 274.486 33.976 277.654 33.8517 278.671C33.5123 281.452 34.2186 284.339 35.2352 286.235C32.4698 289.139 31.7052 292.171 30.1851 298.211C29.2139 302.07 29.426 303.439 30.1851 304.218C30.8128 304.861 31.8045 305.091 35.7304 304.68C39.989 304.233 42.1184 304.01 44.0483 303.293C47.101 302.16 49.2057 300.212 53.2904 296.363C54.97 294.78 56.3903 293.436 57.5481 292.263C58.1505 292.469 58.7158 292.625 59.2867 292.738C59.3531 292.751 59.4184 292.76 59.4845 292.772C60.5378 299.014 61.6509 305.237 62.822 311.434C59.012 312.284 55.7566 314.792 53.9678 318.4L39.832 346.914C38.9396 348.713 38.4679 350.727 38.4679 352.736V426.054C38.4679 433.283 44.35 439.164 51.5802 439.164H84.5753C91.8055 439.164 97.6876 433.283 97.6876 426.054V358.542C97.6876 356.896 97.3827 355.285 96.7812 353.752L83.309 319.433C81.3611 314.471 76.706 311.24 71.3981 311.124C74.1502 303.864 76.9895 296.614 79.9283 289.392C80.3812 289.217 80.7819 289.034 81.1301 288.841C81.6722 289.435 82.7831 290.129 85.1387 291.255C89.0016 293.102 90.9331 294.026 92.9529 294.424C96.1479 295.054 98.9606 294.495 104.456 293.351C111.932 291.795 115.687 290.972 116.469 288.797C117.551 285.787 114.156 281.909 113.221 280.84C111.187 278.517 108.942 277.458 107.555 276.821C105.754 275.994 100.62 273.637 94.4142 275.263C90.5081 276.286 88.2711 278.471 83.7969 282.842C83.3661 283.263 82.9942 283.645 82.6639 284.002C82.5895 283.788 82.5055 283.576 82.4134 283.367C83.0409 281.854 83.6684 280.342 84.3035 278.833C88.8916 274.481 91.1495 272.085 90.7209 270.028C90.5198 269.062 89.9113 268.25 89.1282 267.575C89.9985 265.577 90.8707 263.58 91.7535 261.59C92.1594 261.581 92.5781 261.561 93.029 261.519C95.3932 261.296 98.0698 261.044 98.3553 259.909C98.5063 259.308 97.9863 258.43 96.9643 257.441C98.4411 257.029 100.691 254.024 105.74 252.397C109.943 251.043 113.726 251.41 115.972 251.628C121.768 252.191 123.659 254.072 128.871 253.581C131.235 253.358 133.912 253.106 134.197 251.971C134.325 251.461 133.967 250.75 133.234 249.943C134.547 250.124 135.952 250.268 137.45 250.354C139.976 250.499 141.243 250.562 141.415 250.077C142.032 248.342 129.041 240.412 114.338 239.424C110.769 239.184 108.188 239.428 106.234 239.906C110.934 238.153 117.928 235.486 125.607 237.645C128.25 238.388 133.6 240.441 141.504 240.895C144.03 241.04 145.297 241.103 145.47 240.618C146.086 238.884 133.106 230.96 118.411 229.966C121.822 229.277 125.648 229.084 129.661 230.213C132.305 230.956 137.654 233.009 145.559 233.463C148.085 233.609 149.352 233.671 149.524 233.186C150.141 231.451 137.15 223.521 122.447 222.533ZM54.5266 252.913C54.7257 252.756 54.9209 252.6 55.109 252.443C55.4463 252.939 55.8026 253.319 56.1588 253.56C56.1968 253.759 56.2375 253.955 56.283 254.149C55.781 254.095 55.2432 254.058 54.6738 254.039C54.6258 253.664 54.5741 253.288 54.5266 252.913ZM83.5647 226.915C83.6221 227.244 83.6843 227.579 83.7529 227.922C83.1247 227.802 82.4053 227.716 81.6185 227.665C82.2459 227.437 82.8938 227.189 83.5647 226.915ZM85.061 233.13C84.5787 233.082 84.0628 233.05 83.5202 233.033C83.9445 232.71 84.3638 232.382 84.7522 232.056C84.8515 232.412 84.9542 232.77 85.061 233.13ZM73.9366 243.836C78.9123 241.5 81.4891 241.998 85.5681 238.932C85.9478 238.647 86.3369 238.354 86.7147 238.059C88.0683 241.668 89.6884 245.11 91.3572 247.605C86.6837 245.246 80.263 243.329 73.9366 243.836ZM85.9144 214.071C86.0644 216.04 86.5477 218.543 87.267 221.233C87.2261 221.233 87.1855 221.232 87.144 221.232C85.3584 220.334 84.3747 219.935 84.0309 220.128C83.6728 220.33 83.4329 220.778 83.2971 221.421C77.6854 221.956 70.1217 223.67 63.1734 227.317C57.0304 230.541 54.9876 233.375 53.9313 235.633C53.481 236.596 53.113 237.663 52.8428 238.735C52.7042 237.492 52.5616 236.25 52.4277 235.005C55.4475 233.83 60.0132 222.483 71.3125 219.279C73.8715 218.553 79.2419 217.539 85.9144 214.071ZM53.0424 254.033C53.1257 253.973 53.2058 253.92 53.2903 253.857C53.4192 253.76 53.5493 253.662 53.6796 253.564C53.6992 253.717 53.7203 253.871 53.7399 254.025C53.5107 254.025 53.2795 254.028 53.0424 254.033ZM55.5452 260.712C55.9096 260.479 56.2807 260.229 56.6691 259.937C57.2535 259.498 57.8613 259.041 58.4131 258.586C58.8404 259.017 59.2784 259.269 59.6902 259.262C59.8513 259.259 59.9906 259.207 60.1216 259.131C59.7676 260.191 59.5589 261.229 59.4925 262.151C58.3299 262.192 57.0867 262.297 55.7875 262.482C55.7068 261.892 55.6247 261.302 55.5452 260.712ZM70.4141 311.113H65.7159C65.043 311.113 64.3805 311.167 63.7305 311.265C62.5789 305.171 61.4839 299.053 60.4463 292.916C63.2091 293.222 65.9658 292.669 70.7895 291.665C74.2072 290.954 76.8386 290.395 78.7723 289.791C75.8953 296.877 73.1113 303.99 70.4141 311.113ZM81.4138 281.555C81.8001 281.194 82.2092 280.81 82.6355 280.408C82.3749 281.031 82.1213 281.657 81.8621 282.281C81.7176 282.03 81.5672 281.788 81.4138 281.555ZM83.7893 264.945C80.8406 264.029 78.3731 264.301 76.8577 264.483C74.9577 264.712 69.6672 265.361 65.3096 269.573C63.8551 269.535 62.2082 269.615 60.4534 269.836C61.3878 269.407 62.3548 268.85 63.4265 268.045C65.3248 266.618 67.474 265.003 67.1234 263.887C66.9614 263.371 66.25 262.943 65.1502 262.637C66.3891 261.816 67.9279 260.97 69.8986 260.335C74.1009 258.981 77.8841 259.348 80.1302 259.566C84.9925 260.038 87.1131 261.433 90.7445 261.582C89.9462 263.384 89.1585 265.192 88.3705 267C86.6844 265.85 84.6007 265.197 83.7893 264.945ZM94.4815 255.493C94.5135 255.423 94.5447 255.351 94.5767 255.281C94.8281 255.251 95.0764 255.22 95.3185 255.185C95.3357 255.55 95.3826 255.879 95.4554 256.173C95.1527 255.948 94.8237 255.721 94.4815 255.493ZM102.11 241.678C102.088 241.692 102.066 241.709 102.043 241.724C102.097 241.532 102.147 241.346 102.196 241.165C102.61 241.107 103.083 240.991 103.611 240.829C103.045 241.1 102.55 241.388 102.11 241.678Z" fill="#DCDCDC"/>
<path d="M162.97 432.981L173.276 432.98L178.179 393.233L162.968 393.234L162.97 432.981Z" fill="#FFB6B6"/>
<path d="M198.282 432.747C198.602 433.288 198.772 435.032 198.772 435.66C198.772 437.592 197.206 439.158 195.274 439.158H163.356C162.038 439.158 160.969 438.089 160.969 436.772V435.443C160.969 435.443 159.39 431.45 162.641 426.528C162.641 426.528 166.681 430.382 172.719 424.346L174.499 421.121L187.386 430.544L194.529 431.424C196.092 431.616 197.478 431.394 198.282 432.747Z" fill="#2F2E41"/>
<path d="M219.733 432.981L230.039 432.98L234.942 393.233L219.73 393.234L219.733 432.981Z" fill="#FFB6B6"/>
<path d="M255.044 432.747C255.365 433.288 255.534 435.032 255.534 435.66C255.534 437.592 253.968 439.158 252.036 439.158H220.118C218.8 439.158 217.732 438.089 217.732 436.772V435.443C217.732 435.443 216.153 431.45 219.404 426.528C219.404 426.528 223.444 430.382 229.481 424.346L231.262 421.121L244.149 430.544L251.292 431.424C252.855 431.616 254.24 431.394 255.044 432.747Z" fill="#2F2E41"/>
<path d="M215.593 116.578C215.593 116.578 227.464 111.173 235.043 116.578C242.622 121.983 249.38 170.628 241.271 178.735C233.162 186.843 219.647 168.601 219.647 168.601L215.593 116.578Z" fill="#FFB6B6"/>
<path d="M170.729 117.221C170.729 117.221 158.858 111.816 151.279 117.221C143.699 122.626 136.942 171.272 145.051 179.379C153.16 187.487 166.675 169.245 166.675 169.245L170.729 117.221Z" fill="#FFB6B6"/>
<path d="M171.067 177.014C171.067 177.014 167.012 195.256 162.282 203.364L196.745 223.633L223.775 206.066C223.775 206.066 210.936 185.122 212.963 179.041L171.067 177.014Z" fill="#FFB6B6"/>
<path d="M405.869 430.956L392.633 430.954L386.337 379.911L405.872 379.912L405.869 430.956Z" fill="#FFB6B6"/>
<path d="M360.522 430.655C360.11 431.349 359.893 433.589 359.893 434.396C359.893 436.877 361.904 438.888 364.385 438.888H405.374C407.067 438.888 408.439 437.516 408.439 435.823V434.117C408.439 434.117 410.466 428.989 406.292 422.669C406.292 422.669 401.103 427.618 393.35 419.866L391.064 415.725L374.514 427.826L365.341 428.955C363.334 429.202 361.555 428.917 360.522 430.655Z" fill="#2F2E41"/>
<path d="M446.782 430.956L433.546 430.954L427.25 379.911L446.785 379.912L446.782 430.956Z" fill="#FFB6B6"/>
<path d="M401.435 430.655C401.023 431.349 400.806 433.589 400.806 434.396C400.806 436.877 402.817 438.888 405.298 438.888H446.287C447.98 438.888 449.352 437.516 449.352 435.823V434.117C449.352 434.117 451.379 428.989 447.205 422.669C447.205 422.669 442.016 427.618 434.263 419.866L431.977 415.725L415.427 427.826L406.254 428.955C404.247 429.202 402.468 428.917 401.435 430.655Z" fill="#2F2E41"/>
<path d="M378.333 136.5C378.333 136.5 376.416 148.836 378.636 156.797L346.037 214.595L358.718 223.836L401.067 170.562L406.936 144.24L378.333 136.5Z" fill="#FFB6B6"/>
<path d="M356.772 232.243C361.264 224.278 360.918 215.572 355.997 212.798C351.077 210.023 343.446 214.231 338.954 222.196C334.461 230.161 334.808 238.867 339.729 241.641C344.649 244.416 352.28 240.208 356.772 232.243Z" fill="#FFB6B6"/>
<path d="M391.051 195.304C391.051 195.304 375.465 206.301 380.823 222.716L376.439 278.089L386.181 392.041H407.162L410.533 310.229L424.171 258.61L425.939 392.041L451.933 391.554C451.933 391.554 453.394 324.838 451.446 320.943C449.498 317.047 451.446 320.172 451.446 320.172L467.519 242.042L465.084 188.486L391.051 195.304Z" fill="#2F2E41"/>
<path d="M429.529 59.4385L401.28 70.1519L404.202 77.9434L380.823 95.4745L396.409 150.015L387.642 198.713L412.969 197.739L467.519 192.869L461.675 133.458L462.649 75.9955L441.218 68.204L429.529 59.4385Z" fill="#38A169"/>
<path d="M388.129 94.0134L380.823 95.4744C380.823 95.4744 377.414 97.9092 377.414 106.675C377.414 115.44 377.414 121.284 378.388 126.154C378.388 126.154 372.543 141.737 374.491 145.633C376.44 149.528 400.792 149.528 400.792 149.528L388.129 94.0134Z" fill="#38A169"/>
<path d="M428.386 36.8383C428.386 49.0998 418.444 59.0397 406.181 59.0397C393.917 59.0397 383.976 49.0998 383.976 36.8383C383.976 24.5768 393.917 14.637 406.181 14.637C418.444 14.637 428.386 24.5768 428.386 36.8383Z" fill="#FFB6B6"/>
<path d="M420.057 52.2977C420.057 52.2977 423.99 37.1874 419.799 39.8518L413.293 39.2337L417.401 28.2483C417.401 28.2483 410.048 22.737 407.116 25.9586C404.184 29.1803 404.887 30.9971 402.222 26.8062C399.557 22.6153 393.989 22.6945 388.888 25.7101C383.788 28.7257 379.803 29.2221 380.772 23.6264C381.741 18.0307 381.198 8.52236 384.226 9.60069C387.254 10.679 386.424 11.2877 388.056 7.38007C389.689 3.47248 389.895 1.30444 393.675 2.97611C397.454 4.64777 406.952 -3.20031 410.877 1.54782C414.801 6.29594 418.23 7.05919 421.658 7.82243C425.086 8.58567 438.86 6.39414 437.708 27.7233C437.708 27.7233 446.902 46.0978 430.341 54.5874C430.341 54.5874 425.847 50.1529 422.709 55.5426L420.057 52.2977Z" fill="#2F2E41"/>
<path d="M206.881 99.9929L185.257 100.669L173.769 114.857L160.93 117.559C160.93 117.559 156.876 155.394 162.958 168.907C169.039 182.419 166.336 186.473 166.336 186.473L214.99 185.798C214.99 185.798 213.638 176.621 221.747 168.71L225.814 153.663C227.988 145.619 227.247 137.064 223.723 129.513L214.99 110.803L207.557 108.1L206.881 99.9929Z" fill="#2F2E41"/>
<path d="M166.336 194.581L163.296 199.648C163.296 199.648 153.835 212.485 152.484 248.969C151.132 285.452 162.282 403.509 162.282 403.509H177.712L194.394 243.784L216.679 403.687L236.614 404.025L234.924 240.861C234.924 240.861 230.87 203.702 220.058 195.594C220.058 195.594 185.257 227.011 166.336 194.581Z" fill="#2F2E41"/>
<path d="M138.194 114.541C138.194 121.555 137.771 126.774 130.111 127.241C122.915 127.68 122.027 121.555 122.027 114.541C122.027 107.527 122.195 101.898 130.111 101.841C139.123 101.776 138.194 107.527 138.194 114.541Z" fill="#38A169"/>
<path d="M183.23 114.541C183.23 121.555 185.074 126.774 175.147 127.241C167.51 127.601 167.063 121.555 167.063 114.541C167.063 107.527 168.185 102.628 175.147 101.841C181.695 101.1 183.23 107.527 183.23 114.541Z" fill="#38A169"/>
<path d="M176.302 108.768H131.266V119.159H176.302V108.768Z" fill="#38A169"/>
<path d="M215.905 112.514C215.905 119.528 215.482 124.748 207.822 125.215C200.626 125.653 199.738 119.528 199.738 112.514C199.738 105.5 199.906 99.8708 207.822 99.814C216.834 99.7493 215.905 105.5 215.905 112.514Z" fill="#38A169"/>
<path d="M260.941 112.514C260.941 119.528 262.785 124.747 252.858 125.214C245.221 125.574 244.774 119.528 244.774 112.514C244.774 105.5 245.896 100.601 252.858 99.8139C259.406 99.0736 260.941 105.5 260.941 112.514Z" fill="#38A169"/>
<path d="M254.012 106.741H208.977V117.132H254.012V106.741Z" fill="#38A169"/>
<path d="M333.484 223.317C333.484 230.331 333.062 235.55 325.401 236.018C318.206 236.456 317.317 230.331 317.317 223.317C317.317 216.303 317.485 210.674 325.401 210.617C334.413 210.552 333.484 216.303 333.484 223.317Z" fill="#38A169"/>
<path d="M378.52 223.317C378.52 230.331 380.364 235.55 370.437 236.017C362.8 236.377 362.354 230.331 362.354 223.317C362.354 216.303 363.475 211.404 370.437 210.617C376.985 209.877 378.52 216.303 378.52 223.317Z" fill="#38A169"/>
<path d="M371.592 217.544H326.556V227.935H371.592V217.544Z" fill="#38A169"/>
<path d="M231.839 128.473C236.688 128.473 240.619 122.11 240.619 114.261C240.619 106.412 236.688 100.049 231.839 100.049C226.99 100.049 223.06 106.412 223.06 114.261C223.06 122.11 226.99 128.473 231.839 128.473Z" fill="#FFB6B6"/>
<path d="M190.326 91.8853C203.574 91.8853 214.315 81.147 214.315 67.9005C214.315 54.6541 203.574 43.9158 190.326 43.9158C177.077 43.9158 166.337 54.6541 166.337 67.9005C166.337 81.147 177.077 91.8853 190.326 91.8853Z" fill="#FFB6B6"/>
<path d="M185.509 75.437L191.059 66.6056L193.558 54.5952C193.558 54.5952 218.843 60.7611 212.059 48.4293C205.276 36.0975 188.008 33.0146 176.291 42.2634L171.241 47.1961C171.241 47.1961 182.458 36.7141 175.674 33.0146C168.891 29.315 170.124 26.8487 166.424 29.9316C162.724 33.0146 164.574 35.4809 160.257 33.6311C155.94 31.7814 146.69 29.315 147.923 32.398C149.156 35.4809 139.853 43.4966 143.271 47.1961C146.69 50.8957 143.606 58.2948 149.773 56.445C155.94 54.5952 152.857 63.8441 158.407 60.1445C158.407 60.1445 153.851 65.949 157.551 70.2651C161.252 74.5813 166.953 76.2605 166.336 82.4264C165.719 88.5923 180.527 89.8583 180.527 89.8583L179.374 71.8598C179.374 71.8598 183.042 68.8535 185.509 75.437Z" fill="#2F2E41"/>
<path d="M429.74 116.823C429.74 116.823 426.203 128.797 427.347 136.982L387.367 189.945L398.71 200.786L447.753 153.6L457.062 128.29L429.74 116.823Z" fill="#FFB6B6"/>
<path d="M395.666 208.861C401.176 201.562 401.987 192.887 397.478 189.485C392.969 186.082 384.848 189.241 379.338 196.54C373.829 203.839 373.017 212.514 377.526 215.916C382.035 219.318 390.157 216.16 395.666 208.861Z" fill="#FFB6B6"/>
<path d="M458.713 72.7957C458.713 72.7957 471.168 77.3134 469.583 85.8794C467.999 94.4454 467.397 100.092 467.397 100.092C467.397 100.092 468.747 104.772 466.987 107.104C465.226 109.436 456.188 136.781 456.188 136.781L423.68 125.673C423.68 125.673 442.737 72.9422 458.713 72.7957Z" fill="#38A169"/>
<path d="M544 439.433C544 439.746 543.746 440 543.432 440H0.567644C0.254147 440 0 439.746 0 439.433C0 439.119 0.25414 438.865 0.567644 438.865H543.432C543.746 438.865 544 439.119 544 439.433Z" fill="#E6E6E6"/>
<path d="M163.261 114.905C163.261 122.754 159.331 129.117 154.482 129.117C149.633 129.117 145.702 122.754 145.702 114.905C145.702 107.055 149.633 100.692 154.482 100.692C159.331 100.692 163.261 107.055 163.261 114.905Z" fill="#FFB6B6"/>
</g>
<defs>
<clipPath id="clip0_1592_2610">
<rect width="544" height="440" fill="white"/>
</clipPath>
</defs>
</svg>
