<?xml version="1.0" encoding="UTF-8" standalone="no"?>
<svg
   xmlns:dc="http://purl.org/dc/elements/1.1/"
   xmlns:cc="http://creativecommons.org/ns#"
   xmlns:rdf="http://www.w3.org/1999/02/22-rdf-syntax-ns#"
   xmlns:svg="http://www.w3.org/2000/svg"
   xmlns="http://www.w3.org/2000/svg"
   viewBox="0 0 646.66669 301.33334"
   height="301.33334"
   width="646.66669"
   xml:space="preserve"
   id="svg2"
   version="1.1"><metadata
     id="metadata8"><rdf:RDF><cc:Work
         rdf:about=""><dc:format>image/svg+xml</dc:format><dc:type
           rdf:resource="http://purl.org/dc/dcmitype/StillImage" /></cc:Work></rdf:RDF></metadata><defs
     id="defs6" /><g
     transform="matrix(1.3333333,0,0,-1.3333333,0,301.33333)"
     id="g10"><g
       transform="scale(0.1)"
       id="g12"><g
         transform="scale(10)"
         id="g14"><text
           id="text18"
           style="font-variant:normal;font-weight:normal;font-size:27.375px;font-family:'DejaVu Sans';-inkscape-font-specification:DejaVuSans;writing-mode:lr-tb;fill:#00388c;fill-opacity:1;fill-rule:nonzero;stroke:none"
           transform="matrix(1,0,0,-1,0.202734,6.69414)"><tspan
             id="tspan16"
             y="0"
             x="0 21.078751 37.914375 55.297501 72.078377 83.329498 94.060501 110.84138 137.50462 154.34026 171.77809 182.50909 199.26259 207.96785 225.35097 242.1866 250.89185 269.9996 286.75308 313.41635 330.79947 348.23718 358.96817 375.74905 390.8053 407.66821 424.42169 433.64709 453.68558 468.98807">Departamento de Computação/UFS</tspan></text>
</g><path
         id="path20"
         style="fill:#00388c;fill-opacity:1;fill-rule:evenodd;stroke:none"
         d="m 4162.85,1421.17 c 20.86,0 41.56,2.11 62.07,6.32 20.55,4.26 38.95,11.76 55.24,22.5 16.29,10.75 29.49,25.39 39.57,43.99 10.11,18.55 15.15,42.19 15.15,70.86 0,41.05 -15,74.76 -44.96,101.17 -29.96,26.37 -72.97,39.57 -129.02,39.57 h -165.16 v -284.41 z m -219.92,-374.38 v 711.56 h 217.97 c 35.86,0 67.77,-4.88 95.78,-14.65 28.05,-9.76 51.8,-23.32 71.37,-40.58 19.53,-17.27 34.37,-37.77 44.45,-61.56 10.12,-23.79 15.16,-49.38 15.16,-76.72 0,-35.2 -6.18,-65.16 -18.56,-89.92 -12.38,-24.77 -29.02,-45.12 -49.84,-61.1 -20.86,-15.97 -44.81,-27.54 -71.84,-34.69 -27.07,-7.18 -54.92,-10.78 -83.59,-10.78 h -168.09 v -321.56 z" /><path
         id="path22"
         style="fill:#00388c;fill-opacity:1;fill-rule:evenodd;stroke:none"
         d="m 3357.5,1449.49 350.86,332.34 v -735.04 h -52.77 v 614.81 l -298.09,-294.18 -293.24,290.27 v -610.9 h -52.78 v 735.04 z" /><path
         id="path24"
         style="fill:#00388c;fill-opacity:1;fill-rule:evenodd;stroke:none"
         d="m 2796.45,1403.55 c 0,43.67 -8.44,85.04 -25.4,124.14 -16.95,39.1 -40.23,73.32 -69.88,102.62 -29.65,29.33 -64.53,52.46 -104.57,69.41 -40.08,16.91 -83.59,25.39 -130.51,25.39 -41.05,0 -81.13,-7.66 -120.19,-22.97 -39.1,-15.31 -73.99,-37.15 -104.61,-65.47 -30.63,-28.36 -55.2,-62.38 -73.79,-102.14 -18.55,-39.73 -27.85,-84.07 -27.85,-132.93 0,-41.06 8.16,-80.63 24.45,-118.75 16.29,-38.13 39.06,-72.15 68.4,-102.15 29.34,-29.96 64.18,-53.91 104.57,-71.84 40.43,-17.89 85.04,-26.87 133.91,-26.87 41.05,0 81.13,7.65 120.23,22.96 39.1,15.32 73.79,37.15 104.1,65.51 30.28,28.32 54.73,62.23 73.28,101.64 18.6,39.42 27.86,83.25 27.86,131.45 z m -709.57,-2.93 c 0,55.39 10.58,106.21 31.75,152.5 21.17,46.25 49.38,85.98 84.53,119.22 35.2,33.24 75.59,59.14 121.22,77.69 45.62,18.6 92.85,27.85 141.71,27.85 55.39,0 106.53,-10.23 153.44,-30.78 46.95,-20.5 87.5,-47.89 121.72,-82.11 34.18,-34.18 60.74,-73.59 79.65,-118.24 18.9,-44.65 28.32,-91.4 28.32,-140.27 0,-56.02 -10.59,-107.19 -31.76,-153.44 -21.17,-46.25 -49.18,-86.01 -84.06,-119.26 -34.85,-33.2 -74.92,-58.94 -120.2,-77.18 -45.27,-18.25 -92.38,-27.39 -141.25,-27.39 -56.01,0 -107.5,10.28 -154.41,30.78 -46.92,20.55 -87.46,47.89 -121.68,82.11 -34.22,34.22 -60.94,73.64 -80.16,118.28 -19.22,44.61 -28.82,91.37 -28.82,140.24 z" /><path
         id="path26"
         style="fill:#00388c;fill-opacity:1;fill-rule:evenodd;stroke:none"
         d="m 448.281,2250.11 c 124.571,0 239.731,-28.28 345.43,-84.8 105.699,-56.57 197.109,-131.14 274.139,-223.75 77.03,-92.62 137.27,-197.93 180.7,-315.94 43.44,-118.01 65.16,-239.3 65.16,-363.87 0,-124.57 -21.72,-236.4 -65.16,-335.578 C 1205.12,826.988 1144.88,743 1067.85,674.172 990.82,605.309 899.41,552.449 793.711,515.578 688.012,478.699 572.852,460.27 448.281,460.27 H 0.820313 v 1789.84 z" /><path
         id="path28"
         style="fill:none;stroke:#00388c;stroke-width:1.62;stroke-linecap:butt;stroke-linejoin:miter;stroke-miterlimit:4;stroke-dasharray:none;stroke-opacity:1"
         d="m 448.281,2250.11 c 124.571,0 239.731,-28.28 345.43,-84.8 105.699,-56.56 197.109,-131.13 274.139,-223.75 77.03,-92.62 137.27,-197.93 180.7,-315.94 43.44,-118.01 65.16,-239.3 65.16,-363.87 0,-124.57 -21.72,-236.4 -65.16,-335.582 C 1205.12,826.988 1144.88,743 1067.85,674.18 990.82,605.309 899.41,552.457 793.711,515.578 688.012,478.707 572.852,460.27 448.281,460.27 H 0.820313 v 1789.84 z" /><path
         id="path30"
         style="fill:#00388c;fill-opacity:1;fill-rule:evenodd;stroke:none"
         d="m 2104.69,931.32 -45.86,-37.148 44.8,-60.742 50.59,42.851 z" /><path
         id="path32"
         style="fill:#00388c;fill-opacity:1;fill-rule:evenodd;stroke:none"
         d="m 2197.62,925.07 -43.48,-50.511 47.66,-56.559 48.86,54.059 z" /><path
         id="path34"
         style="fill:#00388c;fill-opacity:1;fill-rule:evenodd;stroke:none"
         d="m 2022.11,1172.81 -36.02,-43.91 53.87,-51.6 39.14,59.8 z" /><path
         id="path36"
         style="fill:#00388c;fill-opacity:1;fill-rule:evenodd;stroke:none"
         d="m 2125.47,1904.1 -50.35,-48.52 30.93,-35.35 55.94,38.08 z" /><path
         id="path38"
         style="fill:#00388c;fill-opacity:1;fill-rule:evenodd;stroke:none"
         d="m 1918.48,1650.97 30.19,-43.83 60.2,44.3 c -11.6,15.31 -23.36,30.04 -35.55,44.8 z" /><path
         id="path40"
         style="fill:#00388c;fill-opacity:1;fill-rule:evenodd;stroke:none"
         d="m 1994.69,2157.18 -39.26,-74.06 51.17,-28.09 43.67,69.22 z" /><path
         id="path42"
         style="fill:#00388c;fill-opacity:1;fill-rule:evenodd;stroke:none"
         d="m 2157.81,2035.07 -43.16,-54.8 42.38,-44.07 51.37,46.41 z" /><path
         id="path44"
         style="fill:#00388c;fill-opacity:1;fill-rule:evenodd;stroke:none"
         d="m 2107.77,1813.86 -61.01,-45.94 38.67,-53.79 60.74,41.18 z" /><path
         id="path46"
         style="fill:#00388c;fill-opacity:1;fill-rule:evenodd;stroke:none"
         d="m 1754.41,2079.37 54.42,-3.79 49.02,144.65 -64.57,20 z" /><path
         id="path48"
         style="fill:#00388c;fill-opacity:1;fill-rule:evenodd;stroke:none"
         d="m 1855.74,2113.59 -28.08,-70.59 43.04,-18.4 36.14,62.5 z" /><path
         id="path50"
         style="fill:#00388c;fill-opacity:1;fill-rule:evenodd;stroke:none"
         d="m 1987.38,1926.95 -38.55,-58.56 44.8,-31.17 47.03,47.42 z" /><path
         id="path52"
         style="fill:#00388c;fill-opacity:1;fill-rule:evenodd;stroke:none"
         d="m 2105.82,800.578 -51.13,-34.797 85.31,-115.711 60.82,49.18 z" /><path
         id="path54"
         style="fill:#00388c;fill-opacity:1;fill-rule:evenodd;stroke:none"
         d="m 2045.04,760.5 -42.7,-23.32 66.84,-136.68 60.78,41.68 z" /><path
         id="path56"
         style="fill:#00388c;fill-opacity:1;fill-rule:evenodd;stroke:none"
         d="m 2015.08,947.531 -37.89,-25.152 37.85,-65.117 45.08,33.75 z" /><path
         id="path58"
         style="fill:#00388c;fill-opacity:1;fill-rule:evenodd;stroke:none"
         d="m 1947.93,613.16 -51.52,-20 17.3,-76.719 67.66,29.688 z" /><path
         id="path60"
         style="fill:#00388c;fill-opacity:1;fill-rule:evenodd;stroke:none"
         d="m 2141.13,1076.67 -52.77,-53.98 69.53,-82.03 66.25,71.76 z" /><path
         id="path62"
         style="fill:#00388c;fill-opacity:1;fill-rule:evenodd;stroke:none"
         d="m 1777.58,688 -49.57,-12.621 11.91,-66.32 53.24,11.171 z" /><path
         id="path64"
         style="fill:#00388c;fill-opacity:1;fill-rule:evenodd;stroke:none"
         d="m 1726.21,912.422 -38.05,-8.524 9.34,-81.328 48.52,8.602 z" /><path
         id="path66"
         style="fill:#00388c;fill-opacity:1;fill-rule:evenodd;stroke:none"
         d="m 1832.34,1808.12 -22.69,-46.09 26.44,-16.22 30.75,42 z" /><path
         id="path68"
         style="fill:#00388c;fill-opacity:1;fill-rule:evenodd;stroke:none"
         d="m 1444.73,1098.28 -40.04,-47.78 49.06,-41.56 39.1,53.09 z" /><path
         id="path70"
         style="fill:#00388c;fill-opacity:1;fill-rule:evenodd;stroke:none"
         d="m 1814.69,924.102 -37.23,-14.18 23.01,-89.774 45.82,23.282 z" /><path
         id="path72"
         style="fill:#00388c;fill-opacity:1;fill-rule:evenodd;stroke:none"
         d="m 1833.59,566.949 -56.71,-15.508 17.14,-73.871 63.25,18.828 z" /><path
         id="path74"
         style="fill:#00388c;fill-opacity:1;fill-rule:evenodd;stroke:none"
         d="m 1730.39,567.379 -58.59,-5.629 -4.61,-100.859 76.56,2.781 z" /><path
         id="path76"
         style="fill:#00388c;fill-opacity:1;fill-rule:evenodd;stroke:none"
         d="m 1699.1,772.141 -51.4,-6.25 0.39,-69.84 54.76,6.051 z" /><path
         id="path78"
         style="fill:#ffffff;fill-opacity:1;fill-rule:evenodd;stroke:none"
         d="m 1116.45,1796.91 45.89,37.15 -44.84,60.78 -50.55,-42.89 z" /><path
         id="path80"
         style="fill:#ffffff;fill-opacity:1;fill-rule:evenodd;stroke:none"
         d="m 940.27,1608.28 33.64,62.65 -118.91,83.24 c -17.379,-29.41 -28.52,-59.41 -43.281,-90 z" /><path
         id="path82"
         style="fill:#ffffff;fill-opacity:1;fill-rule:evenodd;stroke:none"
         d="m 976.449,1841.67 46.831,53.01 -49.999,61.25 -53.402,-62.81 z" /><path
         id="path84"
         style="fill:#ffffff;fill-opacity:1;fill-rule:evenodd;stroke:none"
         d="m 1099.96,1597.3 36.02,43.9 -53.87,51.61 -39.14,-59.85 z" /><path
         id="path86"
         style="fill:#ffffff;fill-opacity:1;fill-rule:evenodd;stroke:none"
         d="m 1255.12,1572.65 31.99,39.77 -86.56,64.21 c -9.73,-15.62 -17.7,-30.03 -25.67,-46.4 z" /><path
         id="path88"
         style="fill:#ffffff;fill-opacity:1;fill-rule:evenodd;stroke:none"
         d="m 887.539,1485.46 24.301,65.39 -118.719,47.89 c -5.93,-27.54 -15.152,-54.57 -20.23,-82.26 z" /><path
         id="path90"
         style="fill:#ffffff;fill-opacity:1;fill-rule:evenodd;stroke:none"
         d="m 837.301,1366.17 6.719,66.6 -69.879,14.26 c -2.11,-23.52 -11.25,-47 -12.071,-70.59 z" /><path
         id="path92"
         style="fill:#ffffff;fill-opacity:1;fill-rule:evenodd;stroke:none"
         d="m 1013.28,1503 28.24,55.7 -63.161,31.22 -28.199,-59.97 z" /><path
         id="path94"
         style="fill:#ffffff;fill-opacity:1;fill-rule:evenodd;stroke:none"
         d="m 886.602,1106.95 -11.211,50.08 -75.27,-15.08 c 3.981,-18.05 8.238,-35 13.469,-52.54 z" /><path
         id="path96"
         style="fill:#ffffff;fill-opacity:1;fill-rule:evenodd;stroke:none"
         d="m 960.66,1172.49 -8.359,61.18 -88.942,-6.72 11.172,-70.67 z" /><path
         id="path98"
         style="fill:#ffffff;fill-opacity:1;fill-rule:evenodd;stroke:none"
         d="m 863.121,1226.63 -6.871,73.72 -90.309,6.83 c 2.457,-29.88 5.539,-58.75 9.289,-88.55 z" /><path
         id="path100"
         style="fill:#ffffff;fill-opacity:1;fill-rule:evenodd;stroke:none"
         d="m 1023.98,1237.73 -6.52,57.73 -71.519,1.84 4.84,-67.5 z" /><path
         id="path102"
         style="fill:#ffffff;fill-opacity:1;fill-rule:evenodd;stroke:none"
         d="m 1042.03,1081.6 -17.07,58.71 -211.87,-50.36 c 9.18,-25.39 18.859,-50.66 29.41,-75.74 z" /><path
         id="path104"
         style="fill:#00388c;fill-opacity:1;fill-rule:evenodd;stroke:none"
         d="m 1294.61,1640.07 20.94,19.96 -53.05,65.78 c -9.92,-9.41 -19.53,-19.18 -28.95,-29.41 z" /><path
         id="path106"
         style="fill:#ffffff;fill-opacity:1;fill-rule:evenodd;stroke:none"
         d="m 1100.12,810.578 50.35,48.551 -30.9,35.32 -55.94,-38.09 z" /><path
         id="path108"
         style="fill:#ffffff;fill-opacity:1;fill-rule:evenodd;stroke:none"
         d="m 1326.72,1082.85 -26.72,39.76 -61.95,-34.76 29.29,-41.06 z" /><path
         id="path110"
         style="fill:#ffffff;fill-opacity:1;fill-rule:evenodd;stroke:none"
         d="M 958.871,938.699 936.84,987.18 869.77,954.211 c 8.75,-17.109 17.691,-33.711 27.109,-50.391 z" /><path
         id="path112"
         style="fill:none;stroke:#00388c;stroke-width:1.62;stroke-linecap:butt;stroke-linejoin:miter;stroke-miterlimit:4;stroke-dasharray:none;stroke-opacity:1"
         d="M 958.871,938.707 936.84,987.18 869.77,954.207 c 8.75,-17.098 17.691,-33.707 27.109,-50.387 z" /><path
         id="path114"
         style="fill:#ffffff;fill-opacity:1;fill-rule:evenodd;stroke:none"
         d="m 1207.03,1070.38 -18.2,38.91 -62.42,-21.05 21.99,-50.43 z" /><path
         id="path116"
         style="fill:#00388c;fill-opacity:1;fill-rule:evenodd;stroke:none"
         d="m 1230.94,557.488 39.26,74.114 -51.22,28.039 -43.67,-69.18 z" /><path
         id="path118"
         style="fill:#ffffff;fill-opacity:1;fill-rule:evenodd;stroke:none"
         d="M 1024.49,842.141 984.262,896.949 924.531,852.57 971.09,793.391 Z" /><path
         id="path120"
         style="fill:#ffffff;fill-opacity:1;fill-rule:evenodd;stroke:none"
         d="m 1067.81,679.602 43.13,54.808 -42.35,44.102 -51.4,-46.453 z" /><path
         id="path122"
         style="fill:#ffffff;fill-opacity:1;fill-rule:evenodd;stroke:none"
         d="m 970.27,1716.05 38.21,59.65 -51.839,40.31 -41.911,-54.26 z" /><path
         id="path124"
         style="fill:#00388c;fill-opacity:1;fill-rule:evenodd;stroke:none"
         d="m 1363.09,587.57 28.08,70.551 -43.05,18.399 -36.13,-62.5 z" /><path
         id="path126"
         style="fill:#00388c;fill-opacity:1;fill-rule:evenodd;stroke:none"
         d="m 1238.24,793.551 38.52,52.769 -44.77,31.129 -37.34,-47.379 z" /><path
         id="path128"
         style="fill:#ffffff;fill-opacity:1;fill-rule:evenodd;stroke:none"
         d="m 992.77,1585.97 30.82,54.06 -51.641,31.64 -32.301,-62.85 z" /><path
         id="path130"
         style="fill:#00388c;fill-opacity:1;fill-rule:evenodd;stroke:none"
         d="m 1125.31,1918.59 51.1,34.76 -85.28,115.71 -60.86,-49.18 z" /><path
         id="path132"
         style="fill:#00388c;fill-opacity:1;fill-rule:evenodd;stroke:none"
         d="m 1180.55,1954.17 42.69,23.36 -66.79,136.68 -60.83,-41.72 z" /><path
         id="path134"
         style="fill:#00388c;fill-opacity:1;fill-rule:evenodd;stroke:none"
         d="m 1210.55,1767.14 37.85,25.16 -37.85,65.12 -45.04,-33.75 z" /><path
         id="path136"
         style="fill:#00388c;fill-opacity:1;fill-rule:evenodd;stroke:none"
         d="m 1305.78,1805.97 47.97,21.88 -32.19,77.42 -52.11,-21.76 z" /><path
         id="path138"
         style="fill:#00388c;fill-opacity:1;fill-rule:evenodd;stroke:none"
         d="m 1228.52,1974.92 55.43,21.99 -24.77,66.33 -59.61,-26.53 z" /><path
         id="path140"
         style="fill:none;stroke:#00388c;stroke-width:1.62;stroke-linecap:butt;stroke-linejoin:miter;stroke-miterlimit:4;stroke-dasharray:none;stroke-opacity:1"
         d="m 1228.52,1974.92 55.43,21.99 -24.77,66.33 -59.61,-26.53 z" /><path
         id="path142"
         style="fill:#00388c;fill-opacity:1;fill-rule:evenodd;stroke:none"
         d="m 1281.05,2088 51.57,19.96 -17.35,85.9 -67.65,-28.67 z" /><path
         id="path144"
         style="fill:#00388c;fill-opacity:1;fill-rule:evenodd;stroke:none"
         d="m 1349.41,1698.55 33.05,18.9 -30.74,64.22 -39.73,-24.41 z" /><path
         id="path146"
         style="fill:#ffffff;fill-opacity:1;fill-rule:evenodd;stroke:none"
         d="m 1094.14,1718.24 36.88,37.73 -48.56,57.31 -46.29,-50.12 z" /><path
         id="path148"
         style="fill:#00388c;fill-opacity:1;fill-rule:evenodd;stroke:none"
         d="m 1492.62,1842.96 38.04,8.52 -9.37,81.33 -48.48,-8.6 z" /><path
         id="path150"
         style="fill:#00388c;fill-opacity:1;fill-rule:evenodd;stroke:none"
         d="m 1484.73,1651.32 44.37,26.1 -33.71,98.43 -61.37,-29.29 z" /><path
         id="path152"
         style="fill:#00388c;fill-opacity:1;fill-rule:evenodd;stroke:none"
         d="m 1366.09,904.102 60.82,83.82 -33.24,22.968 -70.82,-71.91 z" /><path
         id="path154"
         style="fill:#00388c;fill-opacity:1;fill-rule:evenodd;stroke:none"
         d="m 1436.76,840.27 31.25,83.429 -22.89,13.172 -52.15,-77.582 z" /><path
         id="path156"
         style="fill:none;stroke:#00388c;stroke-width:1.62;stroke-linecap:butt;stroke-linejoin:miter;stroke-miterlimit:4;stroke-dasharray:none;stroke-opacity:1"
         d="m 1436.76,840.27 31.25,83.437 -22.89,13.16 -52.15,-77.578 z" /><path
         id="path158"
         style="fill:#00388c;fill-opacity:1;fill-rule:evenodd;stroke:none"
         d="m 1484.61,949.922 27.19,67.648 -19.42,9.88 -43.47,-53.47 z" /><path
         id="path160"
         style="fill:#00388c;fill-opacity:1;fill-rule:evenodd;stroke:none"
         d="m 1328.98,1957.61 56.72,15.47 -17.15,73.87 -63.24,-18.83 z" /><path
         id="path162"
         style="fill:#00388c;fill-opacity:1;fill-rule:evenodd;stroke:none"
         d="m 1410.9,1790.62 37.26,14.18 -23.04,89.73 -45.78,-23.25 z" /><path
         id="path164"
         style="fill:#00388c;fill-opacity:1;fill-rule:evenodd;stroke:none"
         d="m 1343.98,742.879 26.18,80.551 -22.58,13.629 -47.97,-68.86 z" /><path
         id="path166"
         style="fill:#00388c;fill-opacity:1;fill-rule:evenodd;stroke:none"
         d="m 1523.44,2101.99 53.2,1.44 -2.69,151.8 -68.29,-8.83 z" /><path
         id="path168"
         style="fill:#00388c;fill-opacity:1;fill-rule:evenodd;stroke:none"
         d="m 1611.17,1702.03 34.53,6.09 -1.64,75.9 -50.31,-8.09 z" /><path
         id="path170"
         style="fill:#00388c;fill-opacity:1;fill-rule:evenodd;stroke:none"
         d="m 1670.98,2054.21 58.71,-6.13 11.21,74.65 -66.06,5.39 z" /><path
         id="path172"
         style="fill:#00388c;fill-opacity:1;fill-rule:evenodd;stroke:none"
         d="m 1419.45,2057.96 68.05,20.59 -21.91,164.73 c -33.05,-8.52 -79.11,-21.88 -111.18,-33.05 z" /><path
         id="path174"
         style="fill:#00388c;fill-opacity:1;fill-rule:evenodd;stroke:none"
         d="m 1648.44,2158.2 66.48,5 6.25,89.72 -76.17,0.16 z" /><path
         id="path176"
         style="fill:#00388c;fill-opacity:1;fill-rule:evenodd;stroke:none"
         d="m 1566.64,1808.82 39.81,5.12 -0.83,92.07 -50.35,-11.88 z" /><path
         id="path178"
         style="fill:#00388c;fill-opacity:1;fill-rule:evenodd;stroke:none"
         d="m 1524.65,1971.24 56.52,5.63 -1.68,74.57 -69.96,-14.65 z" /><path
         id="path180"
         style="fill:#00388c;fill-opacity:1;fill-rule:evenodd;stroke:none"
         d="m 1619.69,1886.36 50.9,-3.16 2.5,107.73 c -18.4,-1.09 -34.77,-2.89 -52.74,-5.82 z" /><path
         id="path182"
         style="fill:#00388c;fill-opacity:1;fill-rule:evenodd;stroke:none"
         d="m 1396.68,1931.91 59.34,19.45 -22.62,66.68 -62.35,-22.46 z" /><path
         id="path184"
         style="fill:#00388c;fill-opacity:1;fill-rule:evenodd;stroke:none"
         d="m 1705.43,1710.42 28.83,-2.69 14.8,83.16 c -13.63,1.33 -27.3,2.19 -41.21,2.58 z" /><path
         id="path186"
         style="fill:#ffffff;fill-opacity:1;fill-rule:evenodd;stroke:none"
         d="m 968.789,1380.62 69.921,-1.25 3.13,46.83 -66.488,12.62 z" /><path
         id="path188"
         style="fill:#ffffff;fill-opacity:1;fill-rule:evenodd;stroke:none"
         d="m 1333.55,1414.53 13.68,55.23 -59.3,23.67 -17.77,-73.16 z" /><path
         id="path190"
         style="fill:#ffffff;fill-opacity:1;fill-rule:evenodd;stroke:none"
         d="m 1228.01,1488.9 14.65,40.39 -59.07,29.22 -20.07,-51.21 z" /><path
         id="path192"
         style="fill:#ffffff;fill-opacity:1;fill-rule:evenodd;stroke:none"
         d="m 853.359,1310.81 69.301,8.29 1.168,61.13 -69.18,3.44 z" /><path
         id="path194"
         style="fill:#ffffff;fill-opacity:1;fill-rule:evenodd;stroke:none"
         d="m 1045.12,1431.99 75.62,-10.67 10.63,65.39 -72.03,13.83 z" /><path
         id="path196"
         style="fill:#ffffff;fill-opacity:1;fill-rule:evenodd;stroke:none"
         d="m 1110.78,1002.49 -29.49,40.43 -130.239,-44.33 35.937,-70.711 z" /><path
         id="path198"
         style="fill:#ffffff;fill-opacity:1;fill-rule:evenodd;stroke:none"
         d="m 1054.49,1270.97 64.53,10.12 -9.68,53.67 -59.93,-7.15 z" /><path
         id="path200"
         style="fill:#00388c;fill-opacity:1;fill-rule:evenodd;stroke:none"
         d="m 1716.29,1865.23 44.53,-8.95 19.14,119.14 -55.74,7.97 z" /><path
         id="path202"
         style="fill:#00388c;fill-opacity:1;fill-rule:evenodd;stroke:none"
         d="m 1817.73,1939.56 49.42,-18.43 31.95,77.54 -52.26,21.44 z" /><path
         id="path204"
         style="fill:#00388c;fill-opacity:1;fill-rule:evenodd;stroke:none"
         d="m 1875.27,2116.99 54.77,-23.6 40.23,81.14 -67.89,28 z" /><path
         id="path206"
         style="fill:#00388c;fill-opacity:1;fill-rule:evenodd;stroke:none"
         d="m 1774.57,1819.29 34.84,-15.27 33.29,62.93 -43.29,17.38 z" /><path
         id="path208"
         style="fill:#00388c;fill-opacity:1;fill-rule:evenodd;stroke:none"
         d="m 2046.29,2038.86 44.02,-26.13 38.44,55.35 -45.59,34.41 z" /><path
         id="path210"
         style="fill:#00388c;fill-opacity:1;fill-rule:evenodd;stroke:none"
         d="m 1975.86,1786.52 32.93,-28.6 69.18,58.99 -30.67,39.84 z" /><path
         id="path212"
         style="fill:#00388c;fill-opacity:1;fill-rule:evenodd;stroke:none"
         d="m 1864.1,1761.09 38.95,-25.2 40.5,57.07 -42.85,27.03 z" /><path
         id="path214"
         style="fill:#00388c;fill-opacity:1;fill-rule:evenodd;stroke:none"
         d="m 1934.53,1969.41 51.06,-29.1 40.07,64.33 -58.04,36.06 z" /><path
         id="path216"
         style="fill:#00388c;fill-opacity:1;fill-rule:evenodd;stroke:none"
         d="m 1881.25,1854.37 36.37,-16.25 47.15,79.73 -48.83,29.53 z" /><path
         id="path218"
         style="fill:#00388c;fill-opacity:1;fill-rule:evenodd;stroke:none"
         d="m 2029.73,1923.78 32.15,-34.72 53.35,53.82 -53.75,41.14 z" /><path
         id="path220"
         style="fill:#00388c;fill-opacity:1;fill-rule:evenodd;stroke:none"
         d="m 1938.52,1713.98 21.56,-17.31 27.65,40.04 -26.32,14.53 z" /><path
         id="path222"
         style="fill:#00388c;fill-opacity:1;fill-rule:evenodd;stroke:none"
         d="m 1660.04,654.84 58.71,6.09 11.21,-74.649 -66.05,-5.39 z" /><path
         id="path224"
         style="fill:#00388c;fill-opacity:1;fill-rule:evenodd;stroke:none"
         d="m 1408.52,630.738 68.04,-20.59 -25.27,-142.929 c -33.09,8.519 -62.19,21.883 -94.26,33.09 z" /><path
         id="path226"
         style="fill:#00388c;fill-opacity:1;fill-rule:evenodd;stroke:none"
         d="m 1558.01,652.531 66.48,-5 6.25,-73.711 -72.77,3.711 z" /><path
         id="path228"
         style="fill:#00388c;fill-opacity:1;fill-rule:evenodd;stroke:none"
         d="m 1519.57,779.449 50.66,-13.398 -1.64,-74.571 -70,14.649 z" /><path
         id="path230"
         style="fill:#00388c;fill-opacity:1;fill-rule:evenodd;stroke:none"
         d="M 1591.72,903.551 1634.69,898 1626.6,791.398 c -17.93,4.223 -33.75,1.024 -50.98,6.911 z" /><path
         id="path232"
         style="fill:#00388c;fill-opacity:1;fill-rule:evenodd;stroke:none"
         d="m 1282.38,734.559 33.75,-15.457 -26.68,-62.704 c -12.61,8.133 -24.06,17.032 -36.36,25.551 z" /><path
         id="path234"
         style="fill:#00388c;fill-opacity:1;fill-rule:evenodd;stroke:none"
         d="m 1164.53,749.559 51.84,-42.34 -39.38,-59.489 c -18.12,15.149 -35.62,30.782 -52.93,46.911 z" /><path
         id="path236"
         style="fill:none;stroke:#00388c;stroke-width:1.62;stroke-linecap:butt;stroke-linejoin:miter;stroke-miterlimit:4;stroke-dasharray:none;stroke-opacity:1"
         d="m 1164.53,749.57 51.84,-42.351 -39.38,-59.489 c -18.12,15.157 -35.62,30.778 -52.93,46.907 z" /><path
         id="path238"
         style="fill:#00388c;fill-opacity:1;fill-rule:evenodd;stroke:none"
         d="m 1385.78,777.141 59.34,-19.493 -22.66,-66.679 -62.34,22.5 z" /><path
         id="path240"
         style="fill:#ffffff;fill-opacity:1;fill-rule:evenodd;stroke:none"
         d="m 1359.1,1216.71 18.44,-36.95 -77.54,-57.15 -29.18,45.47 z" /><path
         id="path242"
         style="fill:#ffffff;fill-opacity:1;fill-rule:evenodd;stroke:none"
         d="m 1240.86,997.609 36.17,-37.66 -84.3,-84.879 -44.29,43.399 z" /><path
         id="path244"
         style="fill:#00388c;fill-opacity:1;fill-rule:evenodd;stroke:none"
         d="m 1401.29,1144.21 21.8,-24.41 -57.19,-70.74 -39.18,33.79 z" /><path
         id="path246"
         style="fill:#ffffff;fill-opacity:1;fill-rule:evenodd;stroke:none"
         d="m 1217.11,1220.11 14.65,-40.39 -59.1,-29.22 -20.04,51.25 z" /><path
         id="path248"
         style="fill:#00388c;fill-opacity:1;fill-rule:evenodd;stroke:none"
         d="m 1512.7,555.309 69.18,-15.2 -11.61,-78.711 -68,8.75 z" /><path
         id="path250"
         style="fill:#00388c;fill-opacity:1;fill-rule:evenodd;stroke:none"
         d="m 1429.88,703.941 60.04,-16.492 -14.18,-58.859 -67.3,21.64 z" /><path
         id="path252"
         style="fill:none;stroke:#00388c;stroke-width:1.62;stroke-linecap:butt;stroke-linejoin:miter;stroke-miterlimit:4;stroke-dasharray:none;stroke-opacity:1"
         d="m 1429.88,703.938 60.04,-16.481 -14.18,-58.867 -67.3,21.64 z" /><path
         id="path254"
         style="fill:#00388c;fill-opacity:1;fill-rule:evenodd;stroke:none"
         d="m 1806.8,769.449 49.41,18.43 31.95,-77.5 -52.26,-21.438 z" /><path
         id="path256"
         style="fill:#00388c;fill-opacity:1;fill-rule:evenodd;stroke:none"
         d="m 1813.98,649.68 54.77,23.601 29.37,-64.422 -60.93,-23.359 z" /><path
         id="path258"
         style="fill:#00388c;fill-opacity:1;fill-rule:evenodd;stroke:none"
         d="m 1853.16,947.961 38.95,25.16 40.55,-57.07 -42.89,-27.031 z" /><path
         id="path260"
         style="fill:#00388c;fill-opacity:1;fill-rule:evenodd;stroke:none"
         d="m 1930.39,678.59 51.06,29.101 40.07,-64.339 -58.04,-31.403 z" /><path
         id="path262"
         style="fill:#00388c;fill-opacity:1;fill-rule:evenodd;stroke:none"
         d="m 1870.35,854.641 36.37,16.289 56.83,-79.758 -52.73,-29.543 z" /><path
         id="path264"
         style="fill:#00388c;fill-opacity:1;fill-rule:evenodd;stroke:none"
         d="m 1926.45,992.922 20.46,11.718 20.79,-26.331 -24.65,-17.219 z" /><path
         id="path266"
         style="fill:#ffffff;fill-opacity:1;fill-rule:evenodd;stroke:none"
         d="m 1151.88,1333.12 69.96,-1.17 3.04,46.87 -66.52,12.5 z" /><path
         id="path268"
         style="fill:#00388c;fill-opacity:1;fill-rule:evenodd;stroke:none"
         d="m 1517.97,943.121 30.12,-6.41 -15.71,-75.391 -47.15,22.852 z" /><path
         id="path270"
         style="fill:#00388c;fill-opacity:1;fill-rule:evenodd;stroke:none"
         d="m 1369.8,1524.1 36.57,56.48 -81.8,65.55 -46.21,-66.88 z" /><path
         id="path272"
         style="fill:#ffffff;fill-opacity:1;fill-rule:evenodd;stroke:none"
         d="m 1328.95,1313.98 13.78,-40.94 -58.55,-24.69 -13.95,58.32 z" /><path
         id="path274"
         style="fill:#00388c;fill-opacity:1;fill-rule:evenodd;stroke:none"
         d="m 1709.38,1011.56 -64.93,0.7 -14.37,-76.6 85.9,-0.551 z" /><path
         id="path276"
         style="fill:#00388c;fill-opacity:1;fill-rule:evenodd;stroke:none"
         d="m 1796.45,1684.33 27.73,-15.12 33.75,55.59 -40.04,18.63 z" /><path
         id="path278"
         style="fill:#ffffff;fill-opacity:1;fill-rule:evenodd;stroke:none"
         d="m 1271.91,1343.24 58.29,8.55 -0.86,37.11 -56.76,2.85 z" /><path
         id="path280"
         style="fill:#00388c;fill-opacity:1;fill-rule:evenodd;stroke:none"
         d="m 1540.43,1036.95 -22.27,-58.212 59.93,-23.316 19.68,62.928 z" /><path
         id="path282"
         style="fill:#00388c;fill-opacity:1;fill-rule:evenodd;stroke:none"
         d="m 1807.46,1037.3 27.07,-52.269 58.09,29.569 -32.31,49.73 z" /><path
         id="path284"
         style="fill:#00388c;fill-opacity:1;fill-rule:evenodd;stroke:none"
         d="m 1847.89,1662.92 38.95,-27.14 44.41,59.02 -46.76,30.9 z" /><path
         id="path286"
         style="fill:#00388c;fill-opacity:1;fill-rule:evenodd;stroke:none"
         d="m 1916.72,1106.6 -40.9,-30.55 52.03,-64.96 c 20.2,13.83 30.74,24.14 49.65,39.53 z" /><path
         id="path288"
         style="fill:#00388c;fill-opacity:1;fill-rule:evenodd;stroke:none"
         d="m 1778.28,1026.44 -37.23,-10.31 11.37,-91.681 57.46,17.422 z" /><path
         id="path290"
         style="fill:#00388c;fill-opacity:1;fill-rule:evenodd;stroke:none"
         d="m 2201.09,1872.53 40.24,-54.76 59.72,44.33 -46.52,59.22 z" /><path
         id="path292"
         style="fill:#00388c;fill-opacity:1;fill-rule:evenodd;stroke:none"
         d="m 2249.18,873 -46.88,-52.969 50.04,-61.25 49.46,62.821 z" /><path
         id="path294"
         style="fill:#00388c;fill-opacity:1;fill-rule:evenodd;stroke:none"
         d="m 2313.44,935.969 -38.21,-59.61 51.84,-40.308 41.95,54.258 z" /><path
         id="path296"
         style="fill:#00388c;fill-opacity:1;fill-rule:evenodd;stroke:none"
         d="m 1333.55,1414.53 13.68,55.23 -59.3,23.67 13.95,-76.01 z" /><path
         id="path298"
         style="fill:#00388c;fill-opacity:1;fill-rule:evenodd;stroke:none"
         d="m 1310.55,1348.74 20.82,3.05 -0.86,37.11 -24.22,1.21 z" /><path
         id="path300"
         style="fill:#00388c;fill-opacity:1;fill-rule:evenodd;stroke:none"
         d="m 1330.08,1313.98 13.83,-42.11 -29.81,-11.17 -1.17,51.13 z" /><path
         id="path302"
         style="fill:#00388c;fill-opacity:1;fill-rule:evenodd;stroke:none"
         d="m 1360.23,1217.88 18.48,-36.95 -74.06,-54.57 6.95,64.73 z" /><path
         id="path304"
         style="fill:#00388c;fill-opacity:1;fill-rule:evenodd;stroke:none"
         d="m 1326.72,1082.85 -23.24,34.57 -10.32,-54.97 z" /><path
         id="path306"
         style="fill:#00388c;fill-opacity:1;fill-rule:evenodd;stroke:none"
         d="m 1151.91,1825.62 10.43,8.44 -46.01,60.78 -7.5,-6.37 z" /><path
         id="path308"
         style="fill:#00388c;fill-opacity:1;fill-rule:evenodd;stroke:none"
         d="m 1262.73,1582.1 24.38,30.32 -47.81,35.46 z" /><path
         id="path310"
         style="fill:#00388c;fill-opacity:1;fill-rule:evenodd;stroke:none"
         d="m 1266.76,970.66 10.27,-10.711 -24.96,-25.148 z" /><path
         id="path312"
         style="fill:#ffffff;fill-opacity:1;fill-rule:evenodd;stroke:none"
         d="m 1210.04,849.602 -15.39,-19.532 2.5,-2.109 z" /></g></g></svg>