<svg id="visual" viewBox="0 0 1000 25" width="1000" height="25" xmlns="http://www.w3.org/2000/svg" xmlns:xlink="http://www.w3.org/1999/xlink" version="1.1"><path d="M0 13L18.5 12.3C37 11.7 74 10.3 111 11.5C148 12.7 185 16.3 222 17.3C259 18.3 296 16.7 333 15.3C370 14 407 13 444.2 12.2C481.3 11.3 518.7 10.7 555.8 10.7C593 10.7 630 11.3 667 13C704 14.7 741 17.3 778 18.3C815 19.3 852 18.7 889 17C926 15.3 963 12.7 981.5 11.3L1000 10L1000 26L981.5 26C963 26 926 26 889 26C852 26 815 26 778 26C741 26 704 26 667 26C630 26 593 26 555.8 26C518.7 26 481.3 26 444.2 26C407 26 370 26 333 26C296 26 259 26 222 26C185 26 148 26 111 26C74 26 37 26 18.5 26L0 26Z" fill="#ffffff" stroke-linecap="round" stroke-linejoin="miter"></path></svg>