<svg id="visual" viewBox="0 0 1000 25" width="1000" height="25" xmlns="http://www.w3.org/2000/svg" xmlns:xlink="http://www.w3.org/1999/xlink" version="1.1"><path d="M0 10L18.5 10.7C37 11.3 74 12.7 111 11.5C148 10.3 185 6.7 222 5.7C259 4.7 296 6.3 333 7.7C370 9 407 10 444.2 10.8C481.3 11.7 518.7 12.3 555.8 12.3C593 12.3 630 11.7 667 10C704 8.3 741 5.7 778 4.7C815 3.7 852 4.3 889 6C926 7.7 963 10.3 981.5 11.7L1000 13L1000 0L981.5 0C963 0 926 0 889 0C852 0 815 0 778 0C741 0 704 0 667 0C630 0 593 0 555.8 0C518.7 0 481.3 0 444.2 0C407 0 370 0 333 0C296 0 259 0 222 0C185 0 148 0 111 0C74 0 37 0 18.5 0L0 0Z" fill="#ffffff" stroke-linecap="round" stroke-linejoin="miter"></path></svg>